<svg width="97" height="76" viewBox="0 0 97 76" fill="none" xmlns="http://www.w3.org/2000/svg">
<path d="M55.2056 15.498C54.6759 15.7723 54.0591 15.825 53.4905 15.6447C52.922 15.4643 52.4484 15.0656 52.1737 14.5361C50.0261 10.2935 46.7754 6.70756 42.7631 4.15522C42.5131 3.99751 42.2965 3.7921 42.1259 3.55071C41.9552 3.30931 41.8338 3.03667 41.7685 2.74835C41.7032 2.46002 41.6953 2.16166 41.7453 1.87029C41.7954 1.57893 41.9023 1.30027 42.06 1.05023C42.2177 0.800181 42.4231 0.583648 42.6645 0.412989C42.9059 0.242331 43.1785 0.120889 43.4669 0.0555977C43.7552 -0.00969337 44.0535 -0.0175552 44.3449 0.032461C44.6363 0.0824773 44.9149 0.189392 45.165 0.347101C49.841 3.34111 53.638 7.52336 56.1675 12.4661C56.4417 12.9958 56.4945 13.6127 56.3141 14.1812C56.1338 14.7497 55.735 15.2234 55.2056 15.498ZM2.24906 15.7511C2.66126 15.751 3.0655 15.6376 3.41765 15.4233C3.7698 15.209 4.05631 14.9022 4.24593 14.5361C6.39356 10.2935 9.64429 6.70756 13.6566 4.15522C14.1615 3.83671 14.5193 3.33065 14.6512 2.74835C14.783 2.16605 14.6782 1.55521 14.3597 1.05023C14.0412 0.545237 13.5351 0.187459 12.9528 0.0555977C12.3705 -0.0762636 11.7597 0.0285934 11.2547 0.347101C6.57862 3.34111 2.78169 7.52336 0.252183 12.4661C0.0745393 12.809 -0.0118573 13.1919 0.0013081 13.5779C0.0144735 13.9638 0.126758 14.3399 0.327355 14.6699C0.527951 14.9999 0.810109 15.2727 1.14667 15.4621C1.48324 15.6514 1.86287 15.751 2.24906 15.7511ZM54.5897 44.9842C54.9883 45.6678 55.1996 46.4444 55.2023 47.2357C55.205 48.0269 54.999 48.805 54.6051 49.4912C54.2112 50.1775 53.6433 50.7478 52.9587 51.1446C52.274 51.5413 51.4969 51.7505 50.7056 51.7511H39.2306C38.7142 54.2942 37.3345 56.5807 35.3252 58.2229C33.3159 59.8652 30.8007 60.7624 28.2056 60.7624C25.6106 60.7624 23.0953 59.8652 21.086 58.2229C19.0768 56.5807 17.697 54.2942 17.1806 51.7511H5.70562C4.9148 51.7495 4.13836 51.5396 3.45451 51.1424C2.77066 50.7453 2.20355 50.1749 1.8103 49.4888C1.41706 48.8027 1.21157 48.0251 1.21453 47.2342C1.21749 46.4434 1.42881 45.6674 1.82718 44.9842C4.36124 40.6108 5.70562 34.3924 5.70562 27.0011C5.70562 21.0338 8.07615 15.3108 12.2957 11.0912C16.5153 6.87168 22.2382 4.50116 28.2056 4.50116C34.173 4.50116 39.8959 6.87168 44.1155 11.0912C48.3351 15.3108 50.7056 21.0338 50.7056 27.0011C50.7056 34.3896 52.05 40.608 54.5897 44.9842ZM34.5675 51.7511H21.8437C22.3099 53.0657 23.1718 54.2036 24.311 55.0084C25.4503 55.8131 26.8108 56.2452 28.2056 56.2452C29.6004 56.2452 30.9609 55.8131 32.1002 55.0084C33.2394 54.2036 34.1013 53.0657 34.5675 51.7511ZM50.7056 47.2511C47.7131 42.1127 46.2056 35.3008 46.2056 27.0011C46.2056 22.2272 44.3092 17.6489 40.9335 14.2732C37.5579 10.8976 32.9795 9.00115 28.2056 9.00115C23.4317 9.00115 18.8533 10.8976 15.4777 14.2732C12.102 17.6489 10.2056 22.2272 10.2056 27.0011C10.2056 35.3036 8.69249 42.1155 5.70562 47.2511H50.7056Z" fill="#FFBF00"/>
<path d="M50.7056 47.2511C47.7131 42.1127 46.2056 35.3008 46.2056 27.0011C46.2056 22.2272 44.3092 17.6489 40.9335 14.2732C37.5579 10.8976 32.9795 9.00115 28.2056 9.00115C23.4317 9.00115 18.8533 10.8976 15.4777 14.2732C12.102 17.6489 10.2056 22.2272 10.2056 27.0011C10.2056 35.3036 8.69249 42.1155 5.70562 47.2511H50.7056Z" fill="#FFBF00"/>
<path d="M71.0948 26.5254C70.1663 27.4519 69.4853 28.5966 69.114 29.8546C68.1163 29.344 67.021 29.0522 65.9014 28.9989C64.7818 28.9455 63.6638 29.1318 62.6219 29.5452C61.5801 29.9586 60.6385 30.5897 59.8602 31.3962C59.0818 32.2027 58.4846 33.166 58.1084 34.2218L52.0029 28.1164C50.5261 26.6396 48.523 25.8099 46.4345 25.8099C44.3459 25.8099 42.3429 26.6396 40.866 28.1164C39.3892 29.5933 38.5595 31.5963 38.5595 33.6849C38.5595 35.7735 39.3891 37.7765 40.866 39.2534L56.7759 55.1633L54.7971 54.7039C53.7971 54.4385 52.7546 54.3727 51.7292 54.5103C50.7038 54.6478 49.7155 54.986 48.8208 55.5055C47.0138 56.5546 45.6976 58.2786 45.1617 60.2982C44.6258 62.3178 44.9141 64.4675 45.9633 66.2745C47.0124 68.0815 48.7364 69.3977 50.756 69.9336L53.3215 70.6416C72.2284 75.862 80.0541 78.0238 89.3912 68.6867C94.0259 64.0415 96.6287 57.7476 96.6287 51.1858C96.6287 44.6239 94.0259 38.33 89.3912 33.6849L82.2318 26.5254C80.7549 25.0486 78.7519 24.2189 76.6633 24.2189C74.5747 24.2189 72.5717 25.0486 71.0948 26.5254ZM86.2092 36.8669C90.0013 40.6674 92.131 45.817 92.131 51.1858C92.131 56.5546 90.0013 61.7042 86.2092 65.5047C78.7256 72.9883 73.1154 71.4391 54.5167 66.3002L51.9393 65.5882L51.9293 65.5783C51.0651 65.3474 50.3278 64.7829 49.8796 64.0087C49.4314 63.2346 49.3088 62.3141 49.5389 61.4497C49.6914 60.8772 49.9934 60.3555 50.4139 59.9382C50.8328 59.5181 51.3551 59.2158 51.928 59.0618C52.501 58.9079 53.1044 58.9076 53.6774 59.0612C53.7015 59.069 53.7261 59.075 53.751 59.0791L63.4302 61.3323C63.906 61.4417 64.4045 61.3933 64.8504 61.1944C65.2963 60.9956 65.6655 60.6571 65.9021 60.2301C66.1388 59.803 66.2301 59.3106 66.1623 58.8271C66.0945 58.3436 65.8713 57.8952 65.5263 57.5497L44.048 36.0714C43.415 35.4384 43.0595 34.58 43.0595 33.6849C43.0595 32.7898 43.415 31.9313 44.048 31.2984C44.6809 30.6655 45.5394 30.3099 46.4345 30.3099C47.3296 30.3099 48.188 30.6655 48.821 31.2984L62.3444 44.8218C62.7663 45.2438 63.3386 45.4808 63.9354 45.4808C64.5321 45.4808 65.1044 45.2438 65.5264 44.8218C65.9483 44.3999 66.1854 43.8276 66.1854 43.2308C66.1854 42.6341 65.9483 42.0618 65.5264 41.6398L63.1399 39.2534C62.5069 38.6204 62.1514 37.762 62.1514 36.8669C62.1514 35.9718 62.5069 35.1133 63.1399 34.4804C63.7728 33.8474 64.6312 33.4919 65.5264 33.4919C66.4215 33.4919 67.2799 33.8474 67.9128 34.4804L71.8903 38.4578C72.3123 38.8798 72.8846 39.1169 73.4813 39.1169C74.078 39.1169 74.6503 38.8798 75.0723 38.4578C75.4943 38.0359 75.7313 37.4636 75.7313 36.8669C75.7313 36.2701 75.4943 35.6978 75.0723 35.2759L74.2768 34.4804C73.6439 33.8474 73.2883 32.989 73.2883 32.0939C73.2883 31.1988 73.6439 30.3403 74.2768 29.7074C74.9097 29.0745 75.7682 28.7189 76.6633 28.7189C77.5584 28.7189 78.4168 29.0745 79.0498 29.7074L86.2092 36.8669Z" fill="#003366"/>
</svg>
